<svg id="SvgjsSvg1011" width="288" height="288" xmlns="http://www.w3.org/2000/svg" version="1.1" xmlns:xlink="http://www.w3.org/1999/xlink" xmlns:svgjs="http://svgjs.com/svgjs"><defs id="SvgjsDefs1012"></defs><g id="SvgjsG1013"><svg xmlns="http://www.w3.org/2000/svg" width="288" height="288" fill="none" viewBox="0 0 84 84"><path fill="#81b3d2" d="M74.9 57.7H64.3 19.6 9.1C6.8 57.7 5 59.6 5 62V65.5C5 67.9 6.9 69.7999 9.1 69.7999H10V70.9C10 76.4 14.3 81 19.6 81H64.2C69.5 81 73.8 76.5 73.8 70.9V69.7999H74.7C77 69.7999 78.8 67.9 78.8 65.5V62C79 59.7 77.1 57.7 74.9 57.7zM71 70.9C71 74.8 68 77.9 64.3 77.9H19.6C15.9 77.9 12.9 74.7 12.9 70.9V69.7999H71V70.9zM76.1 65.5C76.1 66.2 75.5 66.7999 74.9 66.7999H73.9 71 13 10 9C8.3 66.7999 7.8 66.2 7.8 65.5V62C7.8 61.3 8.4 60.7 9 60.7H12.7 19.6 64.2 71.1 74.8C75.5 60.7 76 61.3 76 62 76.1 62 76.1 65.5 76.1 65.5zM20.6001 49.4001L26.0001 53.5001 31.3001 49.4001 36.6001 53.5001 41.9001 49.4001 47.3001 53.5001 52.6001 49.4001 57.9001 53.5001 63.3001 49.4001 68.6001 53.5001 74.8001 48.8001 73.1001 46.3001 68.6001 49.7001 63.3001 45.6001 57.9001 49.7001 52.6001 45.6001 47.3001 49.7001 41.9001 45.6001 36.6001 49.7001 31.3001 45.6001 26.0001 49.7001 20.6001 45.6001 15.3001 49.7001 10.8001 46.3001 9.1001 48.8001 15.3001 53.5001 20.6001 49.4001zM13 42.5H70.9 73.8C73.8 41.9 73.9 41.3 73.9 40.6 73.9 40.2 73.9 39.8 73.9 39.4 73.2 23.7 59.2 11 42 11 24.7 11 10.7 23.7 10 39.5 10 39.9 10 40.3 10 40.7 10 41.3 10 42 10.1 42.6H13V42.5zM42 14C57.6 14 70.4 25.3 71 39.5H13C13.6 25.4 26.4 14 42 14z" class="color000 svgShape"></path><path fill="#81b3d2" d="M42.0001 28.3C43.0494 28.3 43.9001 27.4046 43.9001 26.3 43.9001 25.1955 43.0494 24.3 42.0001 24.3 40.9508 24.3 40.1001 25.1955 40.1001 26.3 40.1001 27.4046 40.9508 28.3 42.0001 28.3zM34.2001 23.2C35.2494 23.2 36.1 22.3045 36.1 21.2 36.1 20.0954 35.2494 19.2 34.2001 19.2 33.1507 19.2 32.3 20.0954 32.3 21.2 32.3 22.3045 33.1507 23.2 34.2001 23.2zM49.7001 23.2C50.7494 23.2 51.6 22.3045 51.6 21.2 51.6 20.0954 50.7494 19.2 49.7001 19.2 48.6507 19.2 47.8 20.0954 47.8 21.2 47.8 22.3045 48.6507 23.2 49.7001 23.2z" class="color000 svgShape"></path></svg></g></svg>